<?xml version="1.0" standalone="no"?>
<!DOCTYPE svg PUBLIC "-//W3C//DTD SVG 20010904//EN"
 "http://www.w3.org/TR/2001/REC-SVG-20010904/DTD/svg10.dtd">
<svg version="1.0" xmlns="http://www.w3.org/2000/svg"
 width="96.000000pt" height="96.000000pt" viewBox="0 0 96.000000 96.000000"
 preserveAspectRatio="xMidYMid meet">

<g transform="translate(0.000000,96.000000) scale(0.100000,-0.100000)"
fill="#000000" stroke="none">
<path d="M382 945 c-229 -51 -377 -238 -375 -470 3 -268 205 -469 473 -469
209 0 380 122 451 320 31 85 31 216 0 307 -76 224 -321 364 -549 312z m-64
-194 c20 -10 45 -28 55 -39 10 -11 35 -23 55 -27 20 -4 45 -11 55 -17 26 -14
57 -68 57 -101 0 -18 13 -44 34 -68 18 -22 48 -69 66 -105 24 -49 44 -74 78
-97 25 -18 57 -42 71 -54 24 -20 25 -23 10 -38 -29 -30 -90 -11 -139 41 -22
24 -52 47 -66 50 -35 9 -72 -19 -80 -61 -10 -55 -28 -56 -20 -1 4 25 5 46 2
46 -2 0 -18 -22 -35 -50 -17 -27 -36 -50 -42 -50 -6 0 -1 15 10 34 27 43 26
57 -3 86 -59 54 -82 158 -52 235 16 43 14 69 -11 128 -17 39 -54 67 -119 91
l-39 15 38 0 c21 1 54 -8 75 -18z"/>
</g>
</svg>
